# xmcd
#
# Track frame offsets:
#	150
#	13455
#	24762
#	36140
#	49920
#	62250
#	72922
#	83185
#	93842
#	103417
#
# Disc length: 1581 seconds
#
# Revision: 1
# Processed by: cddbd v1.5.2PL0 Copyright (c) Steve Scherf et al.
# Submitted via: audiograbber 1.83.01
#
DISCID=7b062b0a
DTITLE=Mickey Gilley - Gilley's Smokin'
DYEAR=1976
DGENRE=Country
TTITLE0=Don't The Girls All Get Prettier At Closing Time
TTITLE1=There's A Song On The Jukebox
TTITLE2=L-O-V-E
TTITLE3=What Is It
TTITLE4=My Babe
TTITLE5=Bring It On Home To Me
TTITLE6=How's My Ex Treating You
TTITLE7=Lawdy Miss Clawdy
TTITLE8=I Just Can't Get Her Out Of My Mind
TTITLE9=I'll Fly Away
EXTD=
EXTT0=
EXTT1=
EXTT2=
EXTT3=
EXTT4=
EXTT5=
EXTT6=
EXTT7=
EXTT8=
EXTT9=
PLAYORDER=
